<?xml version="1.0"?>
<svg xmlns="http://www.w3.org/2000/svg" viewBox="0 0 24 24">
    <path d="M 14.59375 2.0625 C 13.866212 2.0625 13.145781 2.3542195 12.59375 2.90625 L 2.90625 12.59375 C 1.802189 13.697811 1.802189 15.489689 2.90625 16.59375 L 7 20.71875 A 1.0001 1.0001 0 0 0 7.6875 21 L 22 21 L 22 19 L 13.71875 19 L 21.21875 11.5 C 22.322811 10.395939 22.322811 8.604061 21.21875 7.5 L 16.59375 2.90625 C 16.041719 2.3542195 15.321288 2.0625 14.59375 2.0625 z M 8.8125 9.5 L 14.59375 15.28125 L 10.875 19 L 8.125 19 L 4.3125 15.1875 C 4.016561 14.891561 4.016561 14.295939 4.3125 14 L 8.8125 9.5 z"/>
</svg>
