<?xml version="1.0"?>
<svg xmlns="http://www.w3.org/2000/svg" viewBox="0 0 50 50">
    <path d="M 3 7 C 1.3 7 0 8.3 0 10 L 0 40 C 0 41.7 1.3 43 3 43 L 22.8125 43 C 23.1125 43.4 23.6 43.6125 24 43.8125 L 24 41 L 24 36 L 24 10 C 24 8.3 22.7 7 21 7 L 3 7 z M 29 7 C 27.3 7 26 8.3 26 10 L 26 36 L 26 41 L 26 43.8125 C 26.5 43.6125 26.8875 43.4 27.1875 43 L 47 43 C 48.7 43 50 41.7 50 40 L 50 10 C 50 8.3 48.7 7 47 7 L 29 7 z M 5 14 L 12 14 C 12.6 14 13 14.4 13 15 C 13 15.6 12.6 16 12 16 L 5 16 C 4.4 16 4 15.6 4 15 C 4 14.4 4.4 14 5 14 z M 16 14 C 16.6 14 17 14.4 17 15 C 17 15.6 16.6 16 16 16 C 15.4 16 15 15.6 15 15 C 15 14.4 15.4 14 16 14 z M 19 14 C 19.6 14 20 14.4 20 15 C 20 15.6 19.6 16 19 16 C 18.4 16 18 15.6 18 15 C 18 14.4 18.4 14 19 14 z M 31 14 L 38 14 C 38.6 14 39 14.4 39 15 C 39 15.6 38.6 16 38 16 L 31 16 C 30.4 16 30 15.6 30 15 C 30 14.4 30.4 14 31 14 z M 42 14 C 42.6 14 43 14.4 43 15 C 43 15.6 42.6 16 42 16 C 41.4 16 41 15.6 41 15 C 41 14.4 41.4 14 42 14 z M 45 14 C 45.6 14 46 14.4 46 15 C 46 15.6 45.6 16 45 16 C 44.4 16 44 15.6 44 15 C 44 14.4 44.4 14 45 14 z M 5 19 L 12 19 C 12.6 19 13 19.4 13 20 C 13 20.6 12.6 21 12 21 L 5 21 C 4.4 21 4 20.6 4 20 C 4 19.4 4.4 19 5 19 z M 16 19 C 16.6 19 17 19.4 17 20 C 17 20.6 16.6 21 16 21 C 15.4 21 15 20.6 15 20 C 15 19.4 15.4 19 16 19 z M 19 19 C 19.6 19 20 19.4 20 20 C 20 20.6 19.6 21 19 21 C 18.4 21 18 20.6 18 20 C 18 19.4 18.4 19 19 19 z M 31 19 L 38 19 C 38.6 19 39 19.4 39 20 C 39 20.6 38.6 21 38 21 L 31 21 C 30.4 21 30 20.6 30 20 C 30 19.4 30.4 19 31 19 z M 42 19 C 42.6 19 43 19.4 43 20 C 43 20.6 42.6 21 42 21 C 41.4 21 41 20.6 41 20 C 41 19.4 41.4 19 42 19 z M 45 19 C 45.6 19 46 19.4 46 20 C 46 20.6 45.6 21 45 21 C 44.4 21 44 20.6 44 20 C 44 19.4 44.4 19 45 19 z M 5 24 L 12 24 C 12.6 24 13 24.4 13 25 C 13 25.6 12.6 26 12 26 L 5 26 C 4.4 26 4 25.6 4 25 C 4 24.4 4.4 24 5 24 z M 19 24 C 19.6 24 20 24.4 20 25 C 20 25.6 19.6 26 19 26 C 18.4 26 18 25.6 18 25 C 18 24.4 18.4 24 19 24 z M 31 24 L 38 24 C 38.6 24 39 24.4 39 25 C 39 25.6 38.6 26 38 26 L 31 26 C 30.4 26 30 25.6 30 25 C 30 24.4 30.4 24 31 24 z M 45 24 C 45.6 24 46 24.4 46 25 C 46 25.6 45.6 26 45 26 C 44.4 26 44 25.6 44 25 C 44 24.4 44.4 24 45 24 z M 5 29 L 12 29 C 12.6 29 13 29.4 13 30 C 13 30.6 12.6 31 12 31 L 5 31 C 4.4 31 4 30.6 4 30 C 4 29.4 4.4 29 5 29 z M 16 29 C 16.6 29 17 29.4 17 30 C 17 30.6 16.6 31 16 31 C 15.4 31 15 30.6 15 30 C 15 29.4 15.4 29 16 29 z M 19 29 C 19.6 29 20 29.4 20 30 C 20 30.6 19.6 31 19 31 C 18.4 31 18 30.6 18 30 C 18 29.4 18.4 29 19 29 z M 5 34 L 12 34 C 12.6 34 13 34.4 13 35 C 13 35.6 12.6 36 12 36 L 5 36 C 4.4 36 4 35.6 4 35 C 4 34.4 4.4 34 5 34 z M 19 34 C 19.6 34 20 34.4 20 35 C 20 35.6 19.6 36 19 36 C 18.4 36 18 35.6 18 35 C 18 34.4 18.4 34 19 34 z"/>
</svg>
